<svg width="183" height="61" viewBox="0 0 183 61" fill="none" xmlns="http://www.w3.org/2000/svg">
<path d="M25.9957 20.4849C32.4337 20.4849 37.0885 24.5729 37.0885 30.4259C37.0885 36.3669 32.4337 40.4839 25.9957 40.4839H17.7129V20.4839L25.9957 20.4849ZM25.9957 36.0139C26.7602 36.0422 27.5226 35.9201 28.2374 35.655C28.9523 35.3899 29.6048 34.9872 30.1559 34.471C30.707 33.9548 31.1454 33.3357 31.4448 32.6508C31.7443 31.9659 31.8987 31.2292 31.8987 30.4849C31.8987 29.7406 31.7443 29.0039 31.4448 28.319C31.1454 27.6341 30.707 27.015 30.1559 26.4988C29.6048 25.9826 28.9523 25.5799 28.2374 25.3148C27.5226 25.0496 26.7602 24.9276 25.9957 24.9559H22.8209V36.0149L25.9957 36.0139Z" fill="#009C4F"/>
<path d="M45.542 31.1621V20.4841H50.6809V31.2491C50.6809 34.3081 52.4034 36.2801 55.0931 36.2801C57.7828 36.2801 59.5372 34.3071 59.5372 31.2491V20.4841H64.6761V31.1621C64.6761 37.3621 60.9844 40.9281 55.0911 40.9281C49.2358 40.9271 45.542 37.3661 45.542 31.1621ZM118.731 30.4861C118.702 29.0961 118.966 27.715 119.505 26.4275C120.044 25.14 120.848 23.9732 121.867 22.9984C122.885 22.0237 124.098 21.2615 125.431 20.7587C126.763 20.2558 128.186 20.0229 129.614 20.0741C135.239 20.0741 139.287 23.6041 139.92 28.7791H134.687C134.496 27.6107 133.869 26.5516 132.927 25.8034C131.985 25.0552 130.793 24.67 129.578 24.7211C128.807 24.7073 128.043 24.8488 127.33 25.1367C126.619 25.4247 125.976 25.8528 125.442 26.3941C124.909 26.9355 124.496 27.5784 124.231 28.2824C123.964 28.9865 123.851 29.7364 123.898 30.4851C123.851 31.2337 123.964 31.9837 124.231 32.6877C124.496 33.3917 124.909 34.0346 125.442 34.576C125.976 35.1174 126.619 35.5455 127.33 35.8334C128.043 36.1213 128.807 36.2628 129.578 36.2491C130.793 36.3002 131.985 35.915 132.927 35.1667C133.869 34.4185 134.496 33.3595 134.687 32.1911H139.916C139.284 37.3661 135.235 40.8961 129.611 40.8961C128.183 40.9468 126.76 40.7136 125.429 40.2106C124.097 39.7076 122.884 38.9455 121.867 37.9709C120.848 36.9963 120.044 35.8297 119.505 34.5426C118.966 33.2554 118.703 31.8747 118.731 30.4851V30.4861ZM149.711 40.4861V20.4841H165.252V24.8081H154.823V28.4561H163.919V32.6881H154.823V36.1621H165.251V40.4861H149.711ZM103.828 40.4861V20.4841H108.935V40.4841L103.828 40.4861ZM89.6203 40.4861L79.7619 29.5171V40.4871H74.6528V20.4841H78.5583L88.4712 31.7511V20.4841H93.5783V40.4841L89.6203 40.4861Z" fill="white"/>
<path d="M0.111328 0V61H182.85V0H0.111328ZM178.479 56.744H4.48452V4.256H178.479V56.744Z" fill="#009C4F"/>
</svg>
